<svg id="Capa_1" enable-background="new 0 0 512 512" height="512" viewBox="0 0 512 512" width="512" xmlns="http://www.w3.org/2000/svg"><g><path d="m20.911 357.5c-13.455-31.12-20.911-65.439-20.911-101.5 0-141.385 114.615-256 256-256s256 114.615 256 256c0 36.061-7.456 70.38-20.911 101.5z" fill="#ffc14f"/><path d="m494.191 350c-33.346 84.428-110.282 146.878-203.067 159.61-14.912-45.648-57.488-76.53-105.51-76.53h-114.49c-22.776-23.774-41.012-51.931-53.315-83.08z" fill="#ff9f22"/><path d="m280 73.333h-30c-5.523 0-10-4.477-10-10v-10c0-5.523 4.477-10 10-10h30c5.523 0 10 4.477 10 10v10c0 5.523-4.477 10-10 10z" fill="#269ab1"/><path d="m410 175c0 13.807-8.954 25-20 25s-20-11.193-20-25 8.954-25 20-25 20 11.193 20 25z" fill="#ffd993"/><path d="m440 175c0 13.807-8.954 25-20 25s-20-11.193-20-25 8.954-25 20-25 20 11.193 20 25z" fill="#fff5f5"/><path d="m440 205v30c0 8.284-6.716 15-15 15h-70c-8.284 0-15-6.716-15-15v-30c0-8.284 6.716-15 15-15h70c8.284 0 15 6.716 15 15z" fill="#dd7d00"/><path d="m380 127.167v112.833c0 5.523-4.477 10-10 10h-80c-5.523 0-10-4.477-10-10v-130c0-5.523 4.477-10 10-10h64.72z" fill="#e5554e"/><path d="m294.004 250-5.222-2.739c-4.891-2.565-6.777-8.609-4.212-13.5l70.15-133.761h15.28c5.523 0 10 4.477 10 10v19.361l-63.268 120.639z" fill="#fc7979"/><path d="m410 220c0 16.569-13.431 30-30 30-6.942 0-13.333-2.358-18.417-6.317-6.226 3.998-13.634 6.317-21.583 6.317-22.091 0-40-17.909-40-40s17.909-40 40-40c14.984 0 28.043 8.239 34.895 20.433 1.659-.284 3.365-.433 5.105-.433 16.569 0 30 13.431 30 30z" fill="#9bcf1b"/><path d="m310 250h-90c-11.046 0-20-8.954-20-20v-140c0-11.046 8.954-20 20-20h90c11.046 0 20 8.954 20 20v140c0 11.046-8.954 20-20 20z" fill="#60c8dd"/><path d="m310 250h-55.851c-11.046 0-20-8.954-20-20v-140c0-11.046 8.954-20 20-20h55.851c11.046 0 20 8.954 20 20v140c0 11.046-8.954 20-20 20z" fill="#7cd2e3"/><path d="m395 212.639c13.807 0 25 8.954 25 20s-11.193 20-25 20-25-8.954-25-20 11.193-20 25-20z" fill="#fff04a"/><path d="m495.912 125.384c-1.421-1.82-3.602-2.884-5.912-2.884h-285.055l-13.052-30.455c-1.236-2.885-4.068-4.596-7.024-4.545h-64.869c-4.142 0-7.5 3.358-7.5 7.5s3.358 7.5 7.5 7.5h60.055l12.816 29.904 9.817 39.267c.022.099.047.196.073.293l9.927 39.707c.022.099.047.196.073.293l9.316 37.263c-11.767 7.566-19.577 20.775-19.577 35.773 0 23.435 19.065 42.5 42.5 42.5h185c4.142 0 7.5-3.358 7.5-7.5s-3.358-7.5-7.5-7.5h-185c-15.164 0-27.5-12.336-27.5-27.5s12.336-27.5 27.5-27.5h215c3.441 0 6.441-2.342 7.276-5.681l30-120c.56-2.24.057-4.614-1.364-6.435zm-32.037 78.193c-1.131-.684-2.457-1.077-3.875-1.077h-234.144l-6.25-25h250.394c.133 0 .265-.004.397-.01zm-9.731 38.923h-218.288l-6.25-25h230.394c.133 0 .265-.004.397-.01zm19.731-78.923c-1.131-.684-2.457-1.077-3.875-1.077h-254.144l-6.25-25h270.788z" fill="#644189"/><path d="m330 325c0 19.33-15.67 35-35 35s-35-15.67-35-35 15.67-35 35-35 35 15.67 35 35zm55-35c-19.33 0-35 15.67-35 35s15.67 35 35 35 35-15.67 35-35-15.67-35-35-35z" fill="#4e5a61"/><path d="m310 325c0 8.284-6.716 15-15 15s-15-6.716-15-15 6.716-15 15-15 15 6.716 15 15zm75-15c-8.284 0-15 6.716-15 15s6.716 15 15 15 15-6.716 15-15-6.716-15-15-15z" fill="#909ba6"/><path d="m140 95c0 4.142-3.358 7.5-7.5 7.5h-65c-4.142 0-7.5-3.358-7.5-7.5s3.358-7.5 7.5-7.5h65c4.142 0 7.5 3.358 7.5 7.5z" fill="#fb5858"/><path d="m130.248 205v20c0 8.284-6.716 15-15 15h-40c-8.284 0-15-6.716-15-15v-20c0-8.284 6.716-15 15-15h40c8.285 0 15 6.716 15 15zm-55-25h40c8.284 0 15-6.716 15-15s-6.716-15-15-15h-40c-8.284 0-15 6.716-15 15s6.716 15 15 15z" fill="#909ba6"/><path d="m291.124 145v364.61c-8.215 1.127-16.555 1.865-25 2.193-.33.013-2.026-.267-4.862-.828-110.587-21.892-190.138-119.134-190.138-231.867v-134.108c0-8.284 6.716-15 15-15h190c8.284 0 15 6.716 15 15z" fill="#dce6eb"/><path d="m86.124 130h40c-8.284 0-15 6.716-15 15v305.705c0 6.895-7.959 10.802-13.376 6.536-9.432-7.427-18.329-15.503-26.624-24.161v-288.08c0-8.284 6.716-15 15-15z" fill="#c8d2dc"/><path d="m266.124 200v311.803c-3.358.131-6.733.197-10.124.197-60.483 0-116.068-20.975-159.876-56.049v-255.951c0-8.284 6.716-15 15-15h140c8.284 0 15 6.716 15 15z" fill="#ffe7c0"/><path d="m266.124 476.627c-51.099-4.776-97.835-24.571-135.75-54.926v-236.701h120.75c8.284 0 15 6.716 15 15z" fill="#fff5f5"/><path d="m266.124 200h-170v-25c0-8.284 6.716-15 15-15h140c8.284 0 15 6.716 15 15z" fill="#fb5858"/><path d="m126.124 182.5c0 4.142-3.358 7.5-7.5 7.5s-7.5-3.358-7.5-7.5 3.358-7.5 7.5-7.5 7.5 3.358 7.5 7.5zm117.5-7.5c-4.142 0-7.5 3.358-7.5 7.5s3.358 7.5 7.5 7.5 7.5-3.358 7.5-7.5-3.358-7.5-7.5-7.5z" fill="#fa9084"/><g><path d="m186.124 490h-40c-8.284 0-15-6.716-15-15 0-8.284 6.716-15 15-15h40c8.284 0 15 6.716 15 15 0 8.284-6.716 15-15 15z" fill="#f44545"/><path d="m216.124 490h-40c-8.284 0-15-6.716-15-15 0-8.284 6.716-15 15-15h40c8.284 0 15 6.716 15 15 0 8.284-6.716 15-15 15z" fill="#fb5858"/></g><path d="m181.124 190c-11.046 0-20-8.954-20-20v-25c0-8.284 6.716-15 15-15h10c8.284 0 15 6.716 15 15v25c0 11.046-8.954 20-20 20z" fill="#dce6eb"/><path d="m188.624 167.5c0 4.142-3.358 7.5-7.5 7.5s-7.5-3.358-7.5-7.5 3.358-7.5 7.5-7.5 7.5 3.358 7.5 7.5z" fill="#909ba6"/><path d="m241.124 250-18.86 56.581c-.681 2.042-2.591 3.419-4.743 3.419h-72.792c-2.152 0-4.063-1.377-4.743-3.419l-18.862-56.581z" fill="#fb5858"/><path d="m188.624 273.75v18.75c0 4.142-3.358 7.5-7.5 7.5s-7.5-3.358-7.5-7.5v-18.75c0-4.142 3.358-7.5 7.5-7.5s7.5 3.358 7.5 7.5zm-35-7.5c-4.142 0-7.5 3.358-7.5 7.5v18.75c0 4.142 3.358 7.5 7.5 7.5s7.5-3.358 7.5-7.5v-18.75c0-4.142-3.358-7.5-7.5-7.5zm55 0c-4.142 0-7.5 3.358-7.5 7.5v18.75c0 4.142 3.358 7.5 7.5 7.5s7.5-3.358 7.5-7.5v-18.75c0-4.142-3.358-7.5-7.5-7.5z" fill="#c42d2d"/><path d="m238.624 250c0 4.142-3.358 7.5-7.5 7.5s-7.5-3.358-7.5-7.5c0-12.407-10.093-22.5-22.5-22.5h-40c-12.407 0-22.5 10.093-22.5 22.5 0 4.142-3.358 7.5-7.5 7.5s-7.5-3.358-7.5-7.5c0-20.678 16.822-37.5 37.5-37.5h40c20.678 0 37.5 16.822 37.5 37.5z" fill="#f44545"/><path d="m243.624 257.5h-125c-4.142 0-7.5-3.358-7.5-7.5 0-4.142 3.358-7.5 7.5-7.5h125c4.142 0 7.5 3.358 7.5 7.5 0 4.142-3.358 7.5-7.5 7.5z" fill="#fa9084"/><path d="m203.624 345h-65c-4.142 0-7.5-3.358-7.5-7.5 0-4.142 3.358-7.5 7.5-7.5h65c4.142 0 7.5 3.358 7.5 7.5 0 4.142-3.358 7.5-7.5 7.5z" fill="#fa9084"/><path d="m239.149 440h-113.025c-2.761 0-5-2.239-5-5v-70c0-2.761 2.239-5 5-5h113.025c2.761 0 5 2.239 5 5v70c0 2.761-2.238 5-5 5z" fill="#ffd993"/><path d="m211.124 415c0 4.142-3.358 7.5-7.5 7.5h-65c-4.142 0-7.5-3.358-7.5-7.5s3.358-7.5 7.5-7.5h65c4.142 0 7.5 3.358 7.5 7.5zm-72.5-22.5h15c4.142 0 7.5-3.358 7.5-7.5s-3.358-7.5-7.5-7.5h-15c-4.142 0-7.5 3.358-7.5 7.5s3.358 7.5 7.5 7.5zm85-15h-45c-4.142 0-7.5 3.358-7.5 7.5s3.358 7.5 7.5 7.5h45c4.142 0 7.5-3.358 7.5-7.5s-3.358-7.5-7.5-7.5z" fill="#ffc14f"/></g></svg>