<svg id="Capa_1" enable-background="new 0 0 512 512" height="512" viewBox="0 0 512 512" width="512" xmlns="http://www.w3.org/2000/svg"><g><path d="m56.186 416.047c-34.682-43.244-55.617-97.987-56.175-157.601-.398-42.513 9.825-82.839 28.161-118.446.637-1.238 9.171-2.608 9.828-3.834 4.222-7.88 5.922-14.878 10.917-22.25.722-1.066-3.512-2.633-2.774-3.688 46.437-66.39 123.412-110.228 209.858-110.228 78.047 0 147.936 34.926 194.891 90.001 1.117 1.31-.983 3.416.108 4.749 5.434 6.639 10.245 14.33 15 21.5 1.163 1.754 5.806 1.966 6.927 3.75 24.756 39.404 39.073 86.03 39.073 136 0 60.545-21.018 116.181-56.156 160.009-7.117 8.877-17.922 13.991-29.3 13.991h-341.48c-11.251 0-21.839-5.177-28.878-13.953z" fill="#60c8dd"/><path d="m75.375 140h-47.203c5.312-10.433 11.491-20.453 18.131-30h29.072c8.284 0 15 6.716 15 15s-6.716 15-15 15zm9.625 110h-60c-8.284 0-15 6.716-15 15s6.716 15 15 15h60c8.284 0 15-6.716 15-15s-6.716-15-15-15zm189.576-200c-2.528 0-4.576-2.049-4.576-4.576v-10.424c0-8.284-6.716-15-15-15h-20c-8.284 0-15 6.716-15 15v10.424c0 2.527-2.049 4.576-4.576 4.576-8.077 0-15.027 6.207-15.406 14.275-.407 8.614 6.457 15.725 14.982 15.725h60c8.525 0 15.389-7.111 14.983-15.725-.38-8.068-7.33-14.275-15.407-14.275zm190.424 230h-60c-8.284 0-15 6.716-15 15s6.716 15 15 15h60c8.284 0 15-6.716 15-15s-6.716-15-15-15zm-40-160h47.927c-6.623-10.542-13.993-20.566-22.036-30h-25.891c-8.284 0-15 6.716-15 15s6.716 15 15 15zm35 35c0-8.284-6.716-15-15-15h-60c-8.284 0-15 6.716-15 15s6.716 15 15 15h60c8.284 0 15-6.716 15-15z" fill="#a6e0ec"/><path d="m150 57.5v74.484c0 4.142-3.358 7.5-7.5 7.5s-7.5-3.358-7.5-7.5v-74.484c0-4.142 3.358-7.5 7.5-7.5s7.5 3.358 7.5 7.5z" fill="#c8d2dc"/><path d="m367.5 55v90c0 4.142-3.358 7.5-7.5 7.5s-7.5-3.358-7.5-7.5v-90c0-4.142 3.358-7.5 7.5-7.5s7.5 3.358 7.5 7.5z" fill="#c8d2dc"/><path d="m377.5 55c0 4.142-3.358 7.5-7.5 7.5h-20c-4.142 0-7.5-3.358-7.5-7.5s3.358-7.5 7.5-7.5h20c4.142 0 7.5 3.358 7.5 7.5z" fill="#dce6eb"/><path d="m447.819 186v237.75h-383.639v-237.75l191.82-130.273z" fill="#fff5f5"/><path d="m89.647 423.75h-25.467v-237.75l191.82-130.273 32.232 21.89-198.585 134.868z" fill="#ffe7c0"/><path d="m468.204 204.117c-1.451 2.136-3.81 3.287-6.211 3.287-1.451 0-2.917-.42-4.207-1.296l-201.786-137.042-201.786 137.041c-3.428 2.326-8.09 1.436-10.418-1.991-2.327-3.427-1.436-8.091 1.991-10.418l206-139.903c2.544-1.727 5.884-1.727 8.428 0l206 139.903c3.425 2.327 4.317 6.992 1.989 10.419z" fill="#fb5858"/><path d="m160 86.377c-1.2 1.688-2.971 2.729-4.864 3.048s-3.907-.084-5.595-1.284l-57.042-40.573c-3.376-2.401-4.166-7.083-1.764-10.459 2.401-3.375 7.084-4.165 10.459-1.764l57.042 40.574c3.375 2.4 4.165 7.083 1.764 10.458z" fill="#c8d2dc"/><path d="m171.065 85.862c-17.205 26.23-52.571 32.715-77.9 14.699-.014-.01-.027-.02-.041-.029-2.236-1.594-2.712-4.726-1.12-6.964l57.93-81.443c1.598-2.247 4.725-2.811 6.973-1.213 1.108.787 2.196 1.622 3.263 2.504 21.445 17.724 26.155 49.182 10.895 72.446z" fill="#dce6eb"/><path d="m110.618 76.025c-.014-.01-.027-.02-.041-.029-2.236-1.593-2.712-4.725-1.121-6.963l40.478-56.908c1.598-2.247 4.725-2.811 6.973-1.213 1.108.787 2.196 1.622 3.263 2.504 18.016 14.89 24.22 39.472 16.696 60.746-18.699 14.976-45.758 16.437-66.248 1.863z" fill="#fff5f5"/><path d="m107.497 49.392c-5.048 7.097-14.893 8.758-21.99 3.71s-8.758-14.893-3.71-21.99 14.893-8.758 21.99-3.71 8.758 14.894 3.71 21.99z" fill="#dce6eb"/><path d="m120.25 337.5v-115h125v115z" fill="#865cb2"/><path d="m150 222.5v115h-29.75v-115z" fill="#754ca0"/><path d="m237.75 230v100h-110v-100zm10-15h-130c-2.761 0-5 2.239-5 5v120c0 2.761 2.239 5 5 5h130c2.761 0 5-2.239 5-5v-120c0-2.761-2.239-5-5-5z" fill="#ffc14f"/><path d="m250.5 260h-135.5c-2.761 0-5-2.239-5-5v-20c0-2.761 2.239-5 5-5h135.5c2.761 0 5 2.239 5 5v20c0 2.761-2.239 5-5 5z" fill="#a88ac8"/><path d="m250.5 240h-135.5c-2.761 0-5-2.239-5-5v-20c0-2.761 2.239-5 5-5h135.5c2.761 0 5 2.239 5 5v20c0 2.761-2.239 5-5 5z" fill="#b9a1d3"/><path d="m257.75 350h-150c-2.761 0-5-2.239-5-5v-10c0-2.761 2.239-5 5-5h150c2.761 0 5 2.239 5 5v10c0 2.761-2.239 5-5 5z" fill="#ffcd71"/><path d="m257.75 350h-112.75c-2.761 0-5-2.239-5-5v-10c0-2.761 2.239-5 5-5h112.75c2.761 0 5 2.239 5 5v10c0 2.761-2.239 5-5 5z" fill="#ffd993"/><path d="m301 175h-90c-2.761 0-5-2.239-5-5v-40c0-2.761 2.239-5 5-5h90c2.761 0 5 2.239 5 5v40c0 2.761-2.239 5-5 5z" fill="#ffd993"/><path d="m290 160h-68c-1.105 0-2-.895-2-2v-16c0-1.105.895-2 2-2h68c1.105 0 2 .895 2 2v16c0 1.105-.896 2-2 2z" fill="#865cb2"/><path d="m394.25 410h-90c-2.761 0-5-2.239-5-5v-190c0-2.761 2.239-5 5-5h90c2.761 0 5 2.239 5 5v190c0 2.761-2.239 5-5 5z" fill="#ffcd71"/><path d="m378.5 405h-58.5c-2.761 0-5-2.239-5-5v-170c0-2.761 2.239-5 5-5h58.5c2.761 0 5 2.239 5 5v170c0 2.761-2.239 5-5 5z" fill="#ffc14f"/><path d="m332.5 319.708c-4.142 0-7.5-3.358-7.5-7.5v-24.416c0-4.142 3.358-7.5 7.5-7.5 4.142 0 7.5 3.358 7.5 7.5v24.416c0 4.142-3.358 7.5-7.5 7.5z" fill="#dd7d00"/><path d="m404.25 410h-110c-2.761 0-5-2.239-5-5v-20c0-2.761 2.239-5 5-5h110c2.761 0 5 2.239 5 5v20c0 2.761-2.239 5-5 5z" fill="#ffcd71"/><path d="m404.25 410h-86.405c-2.761 0-5-2.239-5-5v-20c0-2.761 2.239-5 5-5h86.405c2.761 0 5 2.239 5 5v20c0 2.761-2.239 5-5 5z" fill="#ffd993"/><path d="m55.98 415.791v-10.791c0-2.761 2.239-5 5-5h390.039c2.761 0 5 2.239 5 5v10.791c-3.908 4.886-7.992 9.626-12.242 14.209h-375.555c-4.249-4.584-8.333-9.323-12.242-14.209z" fill="#ffe1aa"/><path d="m84.647 405v20c0 2.761 2.239 5 5 5h-21.425c-4.25-4.584-8.333-9.323-12.242-14.209v-10.791c0-2.761 2.239-5 5-5h28.667c-2.761 0-5 2.239-5 5z" fill="#ffcd71"/><path d="m316.855 441.611c21.879 24.369 7.626 63.299-24.803 67.87-11.779 1.66-23.815 2.519-36.052 2.519-78.586 0-148.901-35.41-195.861-91.145h230.185c5.901 0 11.493 2.674 15.164 7.295 3.677 4.629 7.468 9.118 11.367 13.461z" fill="#84b017"/><path d="m282.519 508.895c-.645-.101-1.289-.205-1.932-.311-53.407-8.797-46.698-87.729 7.428-87.729h163.845c-38.832 46.087-93.633 78.277-155.875 88.04-4.459.7-9.007.7-13.466 0z" fill="#9bcf1b"/></g></svg>